<svg xmlns="http://www.w3.org/2000/svg" viewBox="0 0 272 398"><defs><style>.cls-1{fill:#1d7bd8;}.cls-2{fill:#fff;}.cls-3{fill:none;}.cls-4{fill:#e8e8e8;}</style></defs><g id="Layer_2" data-name="Layer 2"><g id="FINAL"><polygon class="cls-1" points="53 0 0 28.18 0 303 53 274.82 53 283.38 272 371.2 272 87.82 53 0"/><polygon class="cls-2" points="8.83 32.6 219 116.87 264.36 92 54.19 7.73 8.83 32.6"/><polygon class="cls-3" points="219 263.24 219 264.81 219.32 263.89 219 263.24"/><polygon class="cls-3" points="159.62 92.67 178.41 100.16 171.9 86.72 159.62 92.67"/><polygon class="cls-1" points="93.12 66.17 54.54 50.79 67.91 78.39 93.12 66.17"/><path class="cls-1" d="M219,264.81v-1.57l-19.56-40.35-13.77,39.68L159.2,275.4a20.73,20.73,0,0,1-36.8,17.83l-75,36.37,32.24,12.85,28.23-13.68,31,10.75a20.79,20.79,0,1,1-2.27,6.54l-28.29-9.82-20,9.67L219,398V366.83l-20.64-42.58Z"/><path class="cls-1" d="M136.77,132.51a20.74,20.74,0,1,1,31.93,11.08l33.48,69.07.73.25-.26.73L219,247.37V183.92l-40.59-83.76-18.79-7.49L45.2,148.12,0,132.43v13.9l63.07,21.89Z"/><path class="cls-1" d="M150.91,89.2,101.83,69.64l-37.13,18L45,47,0,29.06V77.89l14.88,5.16a20.79,20.79,0,1,1-2.27,6.54L0,85.21v39.9l44.76,15.54Z"/><polygon class="cls-1" points="219 116.34 187.94 103.96 219 168.06 219 116.34"/><polygon class="cls-1" points="219 350.97 219 285.9 205.84 323.81 219 350.97"/><path class="cls-2" d="M168.7,143.59a20.74,20.74,0,1,0-31.93-11.08l21.51-10.43Z"/><path class="cls-2" d="M155.88,352.76l-19.32-6.7a20.79,20.79,0,1,0,2.27-6.54l19.32,6.71Z"/><path class="cls-2" d="M148.34,299.88A20.74,20.74,0,0,0,159.2,275.4l-36.8,17.83A20.75,20.75,0,0,0,148.34,299.88Z"/><path class="cls-2" d="M31.93,96.29l-19.32-6.7a20.79,20.79,0,1,0,2.27-6.54L34.2,89.76Z"/><polygon class="cls-2" points="101.83 69.64 93.12 66.17 67.91 78.39 54.54 50.79 45.01 46.99 64.7 87.63 101.83 69.64"/><polygon class="cls-2" points="199.44 222.89 219 263.24 219 247.37 202.65 213.64 199.44 222.89"/><polygon class="cls-2" points="205.84 323.81 219 285.9 219 264.81 198.36 324.25 219 366.83 219 350.97 205.84 323.81"/><path class="cls-1" d="M38,215a20.59,20.59,0,0,1,10.91-2l10.22-38.82L0,153.65v26.23a20.68,20.68,0,0,1,10.46,10A20.76,20.76,0,0,1,.84,217.6c-.28.14-.56.24-.84.36v34.65l27.15-13.16A20.73,20.73,0,0,1,38,215Z"/><path class="cls-2" d="M48.91,213a20.69,20.69,0,0,0-21.76,26.45l17-8.22Z"/><path class="cls-2" d="M10.46,189.87A20.68,20.68,0,0,0,0,179.88V218c.28-.12.56-.22.84-.36A20.76,20.76,0,0,0,10.46,189.87Z"/><polygon class="cls-3" points="26.43 332.05 38.66 326.13 29.18 322.35 26.43 332.05"/><path class="cls-1" d="M130.24,262.52a20.75,20.75,0,0,1,25.94,6.65l23.9-11.58,15.1-43.51-32.7-67.47a20.74,20.74,0,0,1-22.69-7.88l-15.71,7.62,21.12,43.58L67,227.84a20.74,20.74,0,0,1-36.8,17.84L0,260.29v30.76l35.76-17.33,1.4-.68,86-41.68a20.77,20.77,0,1,1,3,6.22l-84.61,41-12.4,43.76,9.48,3.78L119.39,287A20.75,20.75,0,0,1,130.24,262.52Z"/><path class="cls-2" d="M144.58,228.66l-18.39,8.92a20.75,20.75,0,1,0-3-6.22l18.4-8.92Z"/><path class="cls-2" d="M139.79,138.73a20.74,20.74,0,0,0,22.69,7.88l-7.41-15.28Z"/><path class="cls-2" d="M48.56,236.76l-18.4,8.92A20.74,20.74,0,0,0,67,227.84l-17,8.23Z"/><path class="cls-2" d="M130.24,262.52A20.75,20.75,0,0,0,119.39,287l36.79-17.84A20.75,20.75,0,0,0,130.24,262.52Z"/><polygon class="cls-1" points="0 298.74 0 310.72 22.72 319.77 33.24 282.63 0 298.74"/><path class="cls-1" d="M63.94,221.62l72-34.9-18.1-37.36-51.63,25L55.6,214.74A20.6,20.6,0,0,1,63.94,221.62Z"/><path class="cls-2" d="M63.94,221.62a20.6,20.6,0,0,0-8.34-6.88l-3.29,12.52Z"/><path class="cls-2" d="M55.6,214.74l10.62-40.36,51.63-25-1.51-3.11,6.23-3,1.51,3.12,15.71-7.62a19.67,19.67,0,0,1-1.79-3,20.77,20.77,0,0,1-1.23-3.25l-73.7,35.71,1.35.47-2.27,6.54-3-1L48.91,213A20.86,20.86,0,0,1,55.6,214.74Z"/><path class="cls-2" d="M28.38,242.7a20,20,0,0,1-1.23-3.25L0,252.61v7.68l30.16-14.61A21.14,21.14,0,0,1,28.38,242.7Z"/><path class="cls-2" d="M162.48,146.61l32.7,67.47,1.19-3.44,5.81,2L168.7,143.59a19.25,19.25,0,0,1-6.22,3Z"/><path class="cls-2" d="M139.79,138.73l15.28-7.4,7.41,15.28a19.25,19.25,0,0,0,6.22-3l-10.42-21.51-21.51,10.43a20.77,20.77,0,0,0,1.23,3.25A19.67,19.67,0,0,0,139.79,138.73Z"/><path class="cls-2" d="M45.54,230.53l6.77-3.27,3.29-12.52A20.86,20.86,0,0,0,48.91,213l-4.79,18.23-17,8.22a20,20,0,0,0,1.23,3.25,21.14,21.14,0,0,0,1.78,3l18.4-8.92Z"/><path class="cls-2" d="M136.56,346.06a20.85,20.85,0,0,1,2.27-6.54l-31-10.75L79.61,342.45l8.7,3.46,20-9.67Z"/><path class="cls-2" d="M155.88,352.76l2.27-6.53-19.32-6.71a20.85,20.85,0,0,0-2.27,6.54Z"/><path class="cls-2" d="M126.19,237.58a19.29,19.29,0,0,1-1.79-3,20.29,20.29,0,0,1-1.23-3.24L37.16,273l3,6.22-6.94,3.37L22.72,319.77l6.46,2.58,12.4-43.76Z"/><path class="cls-2" d="M126.19,237.58l18.39-8.92-3-6.22-18.4,8.92a20.29,20.29,0,0,0,1.23,3.24A19.29,19.29,0,0,0,126.19,237.58Z"/><polygon class="cls-2" points="219 183.92 219 168.06 187.94 103.96 178.41 100.16 219 183.92"/><polygon class="cls-2" points="159.62 92.67 150.91 89.2 44.76 140.65 0 125.11 0 132.43 45.2 148.12 159.62 92.67"/><path class="cls-2" d="M14.88,83.05,0,77.89v7.32l12.61,4.38A20.85,20.85,0,0,1,14.88,83.05Z"/><path class="cls-2" d="M31.93,96.29l2.27-6.53L14.88,83.05a20.85,20.85,0,0,0-2.27,6.54Z"/><polygon class="cls-2" points="35.76 273.71 0 291.05 0 298.74 33.24 282.63 35.76 273.71"/><polygon class="cls-2" points="40.18 279.26 37.16 273.04 35.76 273.71 33.24 282.63 40.18 279.26"/><path class="cls-2" d="M180.08,257.59l-23.9,11.58a21.19,21.19,0,0,1,1.79,3,20,20,0,0,1,1.23,3.25l26.47-12.83,13.77-39.68-4.26-8.81Z"/><path class="cls-2" d="M120.62,290.25a20.29,20.29,0,0,1-1.23-3.24L38.66,326.13l8.71,3.47,75-36.37A20.06,20.06,0,0,1,120.62,290.25Z"/><path class="cls-2" d="M156.18,269.17,119.39,287a20.29,20.29,0,0,0,1.23,3.24,20.06,20.06,0,0,0,1.78,3l36.8-17.83a20,20,0,0,0-1.23-3.25A21.19,21.19,0,0,0,156.18,269.17Z"/><polygon class="cls-2" points="202.91 212.91 202.18 212.66 202.65 213.64 202.91 212.91"/><polygon class="cls-2" points="202.18 212.66 196.37 210.64 195.18 214.08 199.44 222.89 202.65 213.64 202.18 212.66"/><polygon class="cls-2" points="59.13 174.18 60.35 169.54 63.07 168.22 0 146.33 0 153.66 59.13 174.18"/><polygon class="cls-2" points="64.42 168.69 63.07 168.22 60.35 169.54 59.13 174.18 62.15 175.23 64.42 168.69"/><path class="cls-2" d="M136,186.72l-72,34.9a19.52,19.52,0,0,1,3,6.22l78.24-37.91-21.12-43.58-6.23,3Z"/><path class="cls-2" d="M63.94,221.62l-11.63,5.64L50,236.07l17-8.23a19.52,19.52,0,0,0-3-6.22Z"/><polygon class="cls-2" points="48.56 236.76 49.99 236.07 52.31 227.25 45.54 230.53 48.56 236.76"/><rect class="cls-2" x="116.75" y="144.57" width="6.92" height="3.46" transform="translate(-51.77 67.08) rotate(-25.86)"/><polygon class="cls-4" points="219 116.2 219 392 264.36 367.8 264.36 92 219 116.2"/></g></g></svg>